<svg width="32" height="32" viewBox="0 0 32 32" fill="none" xmlns="http://www.w3.org/2000/svg">
<path fill-rule="evenodd" clip-rule="evenodd" d="M30 16C30 15.7348 29.8946 15.4804 29.7071 15.2929C29.5195 15.1054 29.2652 15 29 15H5.41396L11.708 8.70801C11.8009 8.61504 11.8747 8.50466 11.925 8.38318C11.9753 8.2617 12.0012 8.1315 12.0012 8.00001C12.0012 7.86852 11.9753 7.73832 11.925 7.61685C11.8747 7.49537 11.8009 7.38499 11.708 7.29201C11.615 7.19904 11.5046 7.12528 11.3831 7.07497C11.2616 7.02465 11.1314 6.99875 11 6.99875C10.8685 6.99875 10.7383 7.02465 10.6168 7.07497C10.4953 7.12528 10.3849 7.19904 10.292 7.29201L2.29196 15.292C2.19883 15.3849 2.12494 15.4953 2.07453 15.6167C2.02412 15.7382 1.99817 15.8685 1.99817 16C1.99817 16.1315 2.02412 16.2618 2.07453 16.3833C2.12494 16.5048 2.19883 16.6151 2.29196 16.708L10.292 24.708C10.3849 24.801 10.4953 24.8747 10.6168 24.9251C10.7383 24.9754 10.8685 25.0013 11 25.0013C11.1314 25.0013 11.2616 24.9754 11.3831 24.9251C11.5046 24.8747 11.615 24.801 11.708 24.708C11.8009 24.615 11.8747 24.5047 11.925 24.3832C11.9753 24.2617 12.0012 24.1315 12.0012 24C12.0012 23.8685 11.9753 23.7383 11.925 23.6168C11.8747 23.4954 11.8009 23.385 11.708 23.292L5.41396 17H29C29.2652 17 29.5195 16.8947 29.7071 16.7071C29.8946 16.5196 30 16.2652 30 16Z" fill="white"/>
</svg>
