<svg width="18" height="15" viewBox="0 0 18 15" fill="none" xmlns="http://www.w3.org/2000/svg">
<path fill-rule="evenodd" clip-rule="evenodd" d="M17.75 7.11277C17.75 6.90557 17.6842 6.70686 17.5669 6.56035C17.4497 6.41383 17.2908 6.33152 17.125 6.33152H2.38375L6.3175 1.4159C6.37561 1.34326 6.42171 1.25703 6.45316 1.16212C6.48461 1.06722 6.50079 0.965498 6.50079 0.862773C6.50079 0.760048 6.48461 0.658329 6.45316 0.563424C6.42171 0.468518 6.37561 0.382285 6.3175 0.309648C6.25939 0.23701 6.19041 0.179391 6.11448 0.14008C6.03856 0.100769 5.95718 0.0805359 5.875 0.0805359C5.79282 0.0805359 5.71145 0.100769 5.63552 0.14008C5.5596 0.179391 5.49061 0.23701 5.4325 0.309648L0.432503 6.55965C0.374299 6.63222 0.328121 6.71843 0.296613 6.81335C0.265105 6.90826 0.248886 7.01001 0.248886 7.11277C0.248886 7.21553 0.265105 7.31728 0.296613 7.4122C0.328121 7.50711 0.374299 7.59333 0.432503 7.6659L5.4325 13.9159C5.49061 13.9885 5.5596 14.0462 5.63552 14.0855C5.71145 14.1248 5.79282 14.145 5.875 14.145C5.95718 14.145 6.03856 14.1248 6.11448 14.0855C6.19041 14.0462 6.25939 13.9885 6.3175 13.9159C6.37561 13.8433 6.42171 13.757 6.45316 13.6621C6.48461 13.5672 6.50079 13.4655 6.50079 13.3628C6.50079 13.26 6.48461 13.1583 6.45316 13.0634C6.42171 12.9685 6.37561 12.8823 6.3175 12.8096L2.38375 7.89402H17.125C17.2908 7.89402 17.4497 7.81171 17.5669 7.6652C17.6842 7.51869 17.75 7.31997 17.75 7.11277Z" fill="black"/>
</svg>
