<svg width="40" height="40" viewBox="0 0 40 40" fill="none" xmlns="http://www.w3.org/2000/svg">
<g clip-path="url(#clip0_288_2)">
<path d="M32.545 7.99836C34.565 12.345 34.1067 17.4617 31.87 21.62C30.035 25.0317 27.2967 27.8534 25.04 30.9767C24.0084 32.4067 22.9667 33.8934 22.2584 35.5217C22.0234 36.0634 21.82 36.6184 21.62 37.175C21.4184 37.73 21.2467 38.2967 21.0534 38.855C20.8717 39.3784 20.66 39.995 20.0084 40H19.9967C19.22 39.9984 19.0317 39.1167 18.8384 38.5217C18.365 37.065 17.87 35.6667 17.14 34.3134C16.29 32.74 15.2317 31.285 14.1567 29.8617L32.545 7.99836ZM14.2417 12.8417L7.64337 20.6867C8.85004 23.2534 10.6784 25.4584 12.4284 27.6534C12.84 28.17 13.2517 28.69 13.6567 29.2134L21.9634 19.3384L21.915 19.355C19.0134 20.3567 15.7634 18.87 14.595 16.0434C14.4352 15.6597 14.3184 15.2594 14.2467 14.85C14.1417 14.1217 14.1184 13.5817 14.24 12.8534L14.2417 12.8417V12.8417ZM9.15337 5.24836L9.14837 5.25503C5.90337 9.36503 5.34671 15.055 7.28671 19.8717L15.2617 10.39L15.165 10.3067L9.15337 5.24836ZM24.435 0.726694L18.0384 8.33169C18.0531 8.32541 18.0681 8.31985 18.0834 8.31503C20.75 7.39669 23.755 8.56503 25.1167 11.025C25.41 11.5567 25.655 12.1634 25.745 12.7667C25.8584 13.51 25.8867 14.055 25.765 14.8L25.76 14.8267L32.1534 7.22503C30.4826 4.17777 27.7361 1.86264 24.45 0.731694L24.435 0.726694ZM15.7767 9.78003L23.6034 0.475027L23.525 0.455027C22.3669 0.150603 21.1742 -0.00233918 19.9767 2.70398e-05C18.0377 0.0181883 16.1234 0.43709 14.354 1.23042C12.5847 2.02375 10.9985 3.17438 9.69504 4.61003L9.66837 4.64003L15.7767 9.78003V9.78003Z" fill="#F5A661"/>
</g>
<defs>
<clipPath id="clip0_288_2">
<rect width="40" height="40" fill="white"/>
</clipPath>
</defs>
</svg>
