<svg width="417" height="417" viewBox="0 0 417 417" fill="none" xmlns="http://www.w3.org/2000/svg">
<g clip-path="url(#clip0_16_108)">
<path d="M138.782 148.769C128.482 148.069 118.327 151.49 110.549 158.277C102.771 165.065 98.0077 174.664 97.3071 184.964C96.1366 202.203 100.323 201.404 98.4873 228.392C96.6428 255.519 92.6177 253.867 91.4385 271.264C90.739 281.564 94.1592 291.72 100.947 299.497C107.735 307.275 117.334 312.038 127.634 312.739C193.218 317.211 207.495 153.445 138.782 148.769Z" fill="#313131" fill-opacity="0.05"/>
<path d="M156.613 154.488C192.83 194.207 173.831 309.076 118.776 305.328C112.372 304.851 106.189 302.778 100.792 299.298C104.146 303.211 108.247 306.415 112.855 308.724C117.462 311.032 122.484 312.398 127.626 312.743C186.722 316.766 204.256 184.085 156.613 154.488Z" fill="black" fill-opacity="0.05"/>
<path d="M111.145 249.176C104.262 248.71 106.068 244.31 107.119 228.981C108.158 213.648 106.963 209.049 113.846 209.516C125.2 210.288 122.503 249.956 111.145 249.176Z" fill="#313131" fill-opacity="0.05"/>
<path d="M328.505 226.08C325.243 222.144 321.238 218.89 316.718 216.502C312.198 214.114 307.252 212.639 302.163 212.163C297.073 211.686 291.939 212.217 287.055 213.724C282.17 215.232 277.63 217.687 273.694 220.949C260.39 231.976 263.861 234.461 243.022 251.726C222.09 269.076 220.517 265.02 207.088 276.147C203.153 279.409 199.898 283.415 197.51 287.935C195.122 292.454 193.647 297.4 193.171 302.49C192.694 307.58 193.225 312.713 194.733 317.598C196.24 322.483 198.695 327.022 201.957 330.958C243.912 381.582 372.454 279.106 328.505 226.08Z" fill="#313131" fill-opacity="0.05"/>
<path d="M207.569 336.323C250.76 370.485 353.595 290.642 335.288 238.168C334.821 285.474 254.033 347.08 207.569 336.323Z" fill="black" fill-opacity="0.05"/>
<path d="M236.689 275.221C232.287 269.907 236.719 268.196 248.55 258.386C260.38 248.576 262.888 244.545 267.298 249.856C274.557 258.623 243.948 283.988 236.689 275.221Z" fill="#313131" fill-opacity="0.05"/>
<path d="M302.999 176.217C306.102 172.154 308.374 167.52 309.686 162.579C310.997 157.638 311.323 152.487 310.644 147.421C309.965 142.354 308.295 137.47 305.729 133.049C303.162 128.628 299.75 124.755 295.688 121.653C281.951 111.168 280.31 115.101 258.81 98.6818C237.201 82.181 240.798 79.7343 226.946 69.1523C218.741 62.8862 208.383 60.1355 198.15 61.5051C187.917 62.8748 178.647 68.2526 172.378 76.4559C132.472 128.715 261.197 230.952 302.999 176.217Z" fill="#313131" fill-opacity="0.05"/>
<path d="M301.256 164.26C267.966 207.85 178.619 151.633 164.88 99.9361C165.819 153.955 267.015 223.323 302.991 176.221C306.782 171.25 309.316 165.438 310.38 159.279C311.444 153.119 311.005 146.794 309.102 140.84C309.129 149.296 306.372 157.526 301.256 164.26Z" fill="black" fill-opacity="0.05"/>
<path d="M234.489 97.7785C238.681 92.2907 241.346 96.2333 253.558 105.56C265.769 114.886 270.267 116.422 266.083 121.906C259.171 130.952 227.576 106.825 234.489 97.7785Z" fill="#313131" fill-opacity="0.05"/>
</g>
<defs>
<clipPath id="clip0_16_108">
<rect width="311.411" height="311.411" fill="white" transform="translate(0 137.604) rotate(-26.2235)"/>
</clipPath>
</defs>
</svg>
