<svg width="53" height="184" viewBox="0 0 53 184" fill="none" xmlns="http://www.w3.org/2000/svg">
<path d="M45 7.5L45 32.1975L30 47.1975L30 0H22.5L22.5 47.1975L7.5 32.1975V7.5H0V82.5C0.0105052 88.8061 2.28949 94.8978 6.42058 99.6624C10.5517 104.427 16.2591 107.546 22.5 108.45L22.5 183.5H30L30 108.45C36.241 107.546 41.9484 104.427 46.0794 99.6624C50.2105 94.8978 52.4895 88.8061 52.5 82.5L52.5 7.5H45ZM22.5 100.871C18.2681 100.002 14.4654 97.6996 11.733 94.3531C9.00063 91.0066 7.50561 86.8203 7.5 82.5V72.8025L22.5 87.8025V100.871ZM22.5 77.1975L7.5 62.1975V42.8025L22.5 57.8025V77.1975ZM30 57.8025L45 42.8025V62.1975L30 77.1975V57.8025ZM30 100.871V87.8025L45 72.8025V82.5C44.9944 86.8203 43.4994 91.0066 40.767 94.3531C38.0346 97.6996 34.2319 100.002 30 100.871Z" fill="#313131"/>
</svg>
