<svg width="61" height="33" viewBox="0 0 61 33" fill="none" xmlns="http://www.w3.org/2000/svg">
<path d="M12.7588 29.8096C12.251 30.1318 11.6846 30.293 11.0596 30.293C10.4443 30.293 9.87305 30.1318 9.3457 29.8096C8.80859 30.1318 8.31543 30.293 7.86621 30.293C7.41699 30.293 7.05566 30.2539 6.78223 30.1758C6.50879 30.1074 6.26953 30.0098 6.06445 29.8828C5.64453 29.6289 5.43457 29.3115 5.43457 28.9307C5.43457 28.7354 5.48828 28.5645 5.5957 28.418C5.81055 28.584 6.09375 28.667 6.44531 28.667C6.80664 28.667 7.16797 28.5742 7.5293 28.3887C7.90039 28.2031 8.17871 27.915 8.36426 27.5244V20.3906C8.36426 19.9414 8.27148 19.6094 8.08594 19.3945C7.79297 19.0332 7.29004 18.6768 6.57715 18.3252C7.24121 18.0225 7.6709 17.7539 7.86621 17.5195C8.19824 17.1387 8.36426 16.709 8.36426 16.2305V9.43359C8.04199 9.31641 7.65625 9.25781 7.20703 9.25781C6.76758 9.25781 6.30371 9.375 5.81543 9.60938C5.32715 9.84375 4.8877 10.1855 4.49707 10.6348C3.62793 11.6504 3.19336 12.9785 3.19336 14.6191C3.19336 15.5664 3.34961 16.2646 3.66211 16.7139C3.54492 16.958 3.3252 17.0801 3.00293 17.0801C2.68066 17.0801 2.39258 17.0068 2.13867 16.8604C1.88477 16.7139 1.66504 16.5137 1.47949 16.2598C1.09863 15.752 0.908203 15.2051 0.908203 14.6191C0.908203 14.0332 1.01562 13.5352 1.23047 13.125C0.869141 12.6953 0.688477 12.2119 0.688477 11.6748C0.688477 11.1279 0.834961 10.6787 1.12793 10.3271C0.717773 9.8877 0.512695 9.29688 0.512695 8.55469C0.512695 7.69531 0.908203 7.11914 1.69922 6.82617C1.93359 6.73828 2.13867 6.69434 2.31445 6.69434C2.64648 6.69434 2.89551 6.76758 3.06152 6.91406C2.99316 7.14844 2.95898 7.31445 2.95898 7.41211C2.95898 7.80273 3.0957 7.99805 3.36914 7.99805C3.51562 7.99805 3.66699 7.97852 3.82324 7.93945L4.48242 7.74902C5.625 7.44629 6.57715 7.29492 7.33887 7.29492C8.10059 7.29492 8.76953 7.46094 9.3457 7.79297C9.84375 7.46094 10.4102 7.29492 11.0449 7.29492C11.6797 7.29492 12.2559 7.46094 12.7734 7.79297C13.3301 7.46094 13.9062 7.29492 14.502 7.29492C15.4492 7.29492 16.2793 7.39258 16.9922 7.58789L18.2959 7.93945C18.4521 7.97852 18.6035 7.99805 18.75 7.99805C19.0234 7.99805 19.1602 7.80273 19.1602 7.41211C19.1602 7.31445 19.126 7.14844 19.0576 6.91406C19.2236 6.76758 19.4336 6.69434 19.6875 6.69434C19.9414 6.69434 20.1855 6.73828 20.4199 6.82617C20.6543 6.91406 20.8594 7.04102 21.0352 7.20703C21.416 7.54883 21.6064 8.04199 21.6064 8.68652C21.6064 9.32129 21.4014 9.86816 20.9912 10.3271C21.2842 10.6787 21.4307 11.123 21.4307 11.6602C21.4307 12.1973 21.2451 12.6855 20.874 13.125C21.0986 13.5254 21.2109 13.9258 21.2109 14.3262C21.2109 14.7266 21.1621 15.0879 21.0645 15.4102C20.9668 15.7324 20.8252 16.0156 20.6396 16.2598C20.2393 16.8066 19.7363 17.0801 19.1309 17.0801C18.7988 17.0801 18.5742 16.958 18.457 16.7139C18.7695 16.2646 18.9258 15.5908 18.9258 14.6924C18.9258 13.7842 18.8037 12.998 18.5596 12.334C18.3252 11.6602 18.0127 11.0937 17.6221 10.6348C16.8311 9.7168 15.8984 9.25781 14.8242 9.25781C14.4141 9.25781 14.0576 9.31641 13.7549 9.43359V16.2305C13.7549 16.709 13.8574 17.0654 14.0625 17.2998C14.3848 17.6807 14.8779 18.0225 15.542 18.3252C14.8291 18.6768 14.375 18.9648 14.1797 19.1895C13.8965 19.541 13.7549 19.9414 13.7549 20.3906V27.5244C13.9307 27.915 14.1992 28.2031 14.5605 28.3887C14.9316 28.5742 15.2979 28.667 15.6592 28.667C16.0205 28.667 16.3086 28.584 16.5234 28.418C16.6309 28.5645 16.6846 28.7354 16.6846 28.9307C16.6846 29.1162 16.626 29.292 16.5088 29.458C16.4014 29.624 16.25 29.7656 16.0547 29.8828C15.6055 30.1562 15.0781 30.293 14.4727 30.293C13.877 30.293 13.3057 30.1318 12.7588 29.8096ZM9.77051 26.1182C10.2588 25.9326 10.5273 25.293 10.5762 24.1992C10.6348 23.1055 10.6641 21.5918 10.6641 19.6582C10.6641 17.7246 10.6592 16.4404 10.6494 15.8057C10.6494 15.1611 10.6445 14.6436 10.6348 14.2529C10.6055 13.1006 10.4932 12.4072 10.2979 12.1729C10.1123 11.9287 9.93652 11.7676 9.77051 11.6895C9.77051 15.0879 9.71191 17.0215 9.59473 17.4902C9.45801 17.8809 9.12598 18.1592 8.59863 18.3252C9.18457 18.5303 9.5166 18.7793 9.59473 19.0723C9.71191 19.541 9.77051 21.2549 9.77051 24.2139V26.1182Z" fill="#313131"/>
<path d="M29.6211 29.0699C29.2227 29.3199 28.7695 29.4449 28.2617 29.4449C27.7539 29.4449 27.3008 29.3199 26.9023 29.0699C26.5039 29.3199 26.1328 29.4449 25.7891 29.4449C25.4531 29.4449 25.1758 29.4137 24.957 29.3512C24.7383 29.2965 24.5469 29.2184 24.3828 29.1168C24.0469 28.9137 23.8789 28.6598 23.8789 28.3551C23.8789 28.1988 23.9219 28.0621 24.0078 27.9449C24.1797 28.0777 24.3984 28.1441 24.6641 28.1441C25.3594 28.1441 25.8398 27.8473 26.1055 27.2535V21.523C26.1055 21.1637 26.0312 20.898 25.8828 20.7262C25.6484 20.4371 25.2461 20.1519 24.6758 19.8707C25.207 19.6285 25.5508 19.4137 25.707 19.2262C25.9727 18.9215 26.1055 18.5777 26.1055 18.1949V13.2496C25.8398 12.648 25.3594 12.3473 24.6641 12.3473C24.3984 12.3473 24.1797 12.4137 24.0078 12.5465C23.9219 12.4293 23.8789 12.2965 23.8789 12.148C23.8789 11.9918 23.9219 11.8473 24.0078 11.7144C24.1016 11.5816 24.2266 11.4684 24.3828 11.3746C24.7422 11.1559 25.1523 11.0465 25.6133 11.0465C26.082 11.0465 26.5117 11.1754 26.9023 11.4332C27.3086 11.1754 27.7617 11.0465 28.2617 11.0465C28.7617 11.0465 29.2148 11.1754 29.6211 11.4332C30.5039 11.0973 31.4805 10.9293 32.5508 10.9293C33.6289 10.9293 34.5312 11.0269 35.2578 11.2223C35.9844 11.4176 36.6094 11.6949 37.1328 12.0543C38.1875 12.7809 38.8438 13.7926 39.1016 15.0894C39.2031 15.6676 39.5742 16.1051 40.2148 16.4019C39.6055 16.7457 39.207 17.2926 39.0195 18.0426C38.6367 19.5894 37.6797 20.5543 36.1484 20.9371C36.9375 21.148 37.582 21.5816 38.082 22.2379C38.5977 22.9176 38.8555 23.7184 38.8555 24.6402V25.8121C38.8555 26.9371 39.2188 27.6637 39.9453 27.9918C40.1641 28.0934 40.4023 28.1441 40.6602 28.1441C40.918 28.1441 41.1328 28.0777 41.3047 27.9449C41.3906 28.0621 41.4336 28.1988 41.4336 28.3551C41.4336 28.5035 41.3945 28.6441 41.3164 28.7769C41.2383 28.9098 41.1328 29.023 41 29.1168C40.7188 29.3355 40.3906 29.4449 40.0156 29.4449C39.6406 29.4449 39.2734 29.3434 38.9141 29.1402C38.2578 29.4996 37.6445 29.5348 37.0742 29.2457C36.8555 29.3785 36.625 29.4449 36.3828 29.4449C36.1406 29.4449 35.9062 29.3902 35.6797 29.2809C35.4609 29.1715 35.2656 28.9918 35.0938 28.7418C34.7266 28.2027 34.543 27.3746 34.543 26.2574V25.3902C34.543 23.5855 34.0273 22.4137 32.9961 21.8746C32.6523 21.6949 32.25 21.6051 31.7891 21.6051H30.418V27.3121C30.6289 27.8668 31.0312 28.1441 31.625 28.1441C31.8906 28.1441 32.1094 28.0777 32.2812 27.9449C32.3672 28.0621 32.4102 28.234 32.4102 28.4605C32.4102 28.6871 32.2852 28.9098 32.0352 29.1285C31.793 29.3394 31.4258 29.4449 30.9336 29.4449C30.4414 29.4449 30.0039 29.3199 29.6211 29.0699ZM32.668 12.4879C31.168 12.4879 30.418 13.0699 30.418 14.234V19.0269C30.418 19.4332 30.5781 19.7066 30.8984 19.8473C31.2031 19.9801 31.6523 20.0465 32.2461 20.0465C32.8477 20.0465 33.2656 20.0152 33.5 19.9527C33.7422 19.8824 33.9492 19.7652 34.1211 19.6012C34.4727 19.2652 34.6484 18.7027 34.6484 17.9137V14.4918C34.6484 13.5152 34.2422 12.8902 33.4297 12.6168C33.1875 12.5309 32.9336 12.4879 32.668 12.4879ZM35.4336 13.2379C35.6758 13.7848 35.7969 14.6598 35.7969 15.8629C35.7969 17.9332 35.6992 19.1715 35.5039 19.5777C35.9336 19.4918 36.2422 18.9176 36.4297 17.8551L36.5234 17.3746C36.6094 16.8668 36.8594 16.5426 37.2734 16.4019C36.9688 16.3004 36.7734 16.1793 36.6875 16.0387C36.5938 15.8746 36.5078 15.5973 36.4297 15.2066C36.3594 14.8082 36.2852 14.4879 36.207 14.2457C36.1289 14.0035 36.0469 13.8121 35.9609 13.6715C35.8125 13.4215 35.6367 13.2769 35.4336 13.2379ZM27.2305 26.1051C27.6211 25.9566 27.8359 25.4449 27.875 24.5699C27.9219 23.6949 27.9453 22.484 27.9453 20.9371C27.9453 19.3902 27.9414 18.3629 27.9336 17.8551C27.9336 17.3394 27.9297 16.9254 27.9219 16.6129C27.8984 15.691 27.8086 15.1363 27.6523 14.9488C27.5039 14.7535 27.3633 14.6246 27.2305 14.5621C27.2305 17.2809 27.1836 18.8277 27.0898 19.2027C26.9805 19.5152 26.7148 19.7379 26.293 19.8707C26.7617 20.0348 27.0273 20.234 27.0898 20.4684C27.1836 20.8434 27.2305 22.2144 27.2305 24.5816V26.1051ZM35.3164 22.8941C35.6289 23.2457 35.7852 23.6754 35.7852 24.1832V25.7301C35.7852 27.0269 36.043 27.7184 36.5586 27.8043C36.6992 27.8277 36.8359 27.8238 36.9688 27.7926C36.6875 27.3551 36.5469 26.8941 36.5469 26.4098V24.7691C36.5469 24.1519 36.4609 23.7144 36.2891 23.4566C35.9922 23.0191 35.668 22.8316 35.3164 22.8941Z" fill="#313131"/>
<path d="M47.1562 29.4287C46.375 30.21 45.6328 30.6006 44.9297 30.6006C44.4805 30.6006 44.1777 30.4346 44.0215 30.1025C44.2461 29.8291 44.3584 29.4189 44.3584 28.8721V28.6523C44.3584 28.5938 44.3535 28.54 44.3438 28.4912C43.8555 28.0518 43.6113 27.5342 43.6113 26.9385C43.6113 26.333 43.8945 25.7178 44.4609 25.0928C44.2949 24.7607 44.2119 24.4092 44.2119 24.0381C44.2119 23.6572 44.2656 23.3057 44.373 22.9834C44.4902 22.6514 44.6465 22.3633 44.8418 22.1191C45.252 21.582 45.6523 21.3135 46.043 21.3135C46.4434 21.3135 46.7266 21.4697 46.8926 21.7822C46.541 22.1533 46.3652 22.7344 46.3652 23.5254C46.3652 24.3164 46.4775 25.0049 46.7021 25.5908C46.9365 26.1768 47.2637 26.6797 47.6836 27.0996C48.582 28.0176 49.7295 28.4766 51.126 28.4766C52.0635 28.4766 52.8594 28.208 53.5137 27.6709C54.2168 27.0947 54.5684 26.3086 54.5684 25.3125C54.5684 24.6094 54.4023 24.0381 54.0703 23.5986C53.5527 22.915 52.7422 22.1924 51.6387 21.4307C50.7891 20.835 50.1104 20.5371 49.6025 20.5371C49.085 20.5371 48.5137 20.7471 47.8887 21.167C48.0547 20.6689 48.1377 20.2051 48.1377 19.7754C48.1377 19.6777 48.0449 19.5508 47.8594 19.3945L47.3174 18.9111C45.6084 17.3389 44.5977 15.8789 44.2852 14.5312C44.1777 14.0625 44.124 13.4766 44.124 12.7734C44.124 12.0605 44.2949 11.3428 44.6367 10.6201C44.9883 9.8877 45.4668 9.26758 46.0723 8.75977C47.332 7.68555 48.9336 7.14844 50.877 7.14844C52.0586 7.14844 53.1426 7.33887 54.1289 7.71973C54.5488 7.88574 55.0273 7.96875 55.5645 7.96875C55.7891 7.96875 55.9893 7.95898 56.165 7.93945C56.3506 7.91016 56.5117 7.80762 56.6484 7.63184C56.7754 7.44629 56.8389 7.28027 56.8389 7.13379C56.8389 6.9873 56.8193 6.86523 56.7803 6.76758C56.8486 6.73828 56.9414 6.72363 57.0586 6.72363C57.1855 6.72363 57.3223 6.76758 57.4688 6.85547C57.6152 6.93359 57.7471 7.0459 57.8643 7.19238C58.1279 7.52441 58.2598 7.90039 58.2598 8.32031C58.2598 8.73047 58.1426 9.04297 57.9082 9.25781C58.2402 9.55078 58.4062 10.0049 58.4062 10.6201C58.4062 11.2256 58.2012 11.7334 57.791 12.1436C57.8691 12.4072 57.9082 12.6465 57.9082 12.8613C57.9082 13.0664 57.8691 13.2666 57.791 13.4619C57.7227 13.6475 57.625 13.8086 57.498 13.9453C57.2148 14.248 56.9463 14.3994 56.6924 14.3994C56.292 14.3994 55.9551 14.3311 55.6816 14.1943C55.8477 13.8037 55.9307 13.3838 55.9307 12.9346C55.9307 12.4854 55.8281 12.0264 55.623 11.5576C55.4277 11.0791 55.1494 10.6641 54.7881 10.3125C54.0264 9.58984 53.0303 9.22852 51.7998 9.22852C51.0186 9.22852 50.3789 9.46777 49.8809 9.94629C49.4121 10.3955 49.1777 10.9375 49.1777 11.5723C49.1777 12.0508 49.2949 12.4512 49.5293 12.7734C49.9395 13.3301 50.5889 13.9062 51.4775 14.502L52.1807 14.9707C52.5713 15.2148 52.835 15.3369 52.9717 15.3369C53.1084 15.3369 53.2451 15.3223 53.3818 15.293C53.5186 15.2637 53.6699 15.2246 53.8359 15.1758C54.1875 15.0586 54.5293 14.8926 54.8613 14.6777L54.6709 15.498C54.6123 15.7715 54.583 15.9717 54.583 16.0986C54.583 16.3037 54.6855 16.4893 54.8906 16.6553C56.7168 18.2373 57.9375 19.5605 58.5527 20.625C59.0898 21.5527 59.3584 22.5537 59.3584 23.6279C59.3584 24.7021 59.1826 25.625 58.8311 26.3965C58.4795 27.168 57.9668 27.8516 57.293 28.4473C55.8086 29.7754 53.8799 30.4395 51.5068 30.4395C49.8369 30.4395 48.3867 30.1025 47.1562 29.4287ZM46.1602 11.6895C45.7891 11.8457 45.6035 12.251 45.6035 12.9053C45.6035 14.2432 46.4971 15.7129 48.2842 17.3145L49.1631 18.1055C49.4658 18.3789 49.5977 18.5889 49.5586 18.7354C49.5293 18.8818 49.5 18.999 49.4707 19.0869C49.4512 19.1748 49.4268 19.2578 49.3975 19.3359C49.3682 19.4141 49.3486 19.4727 49.3389 19.5117C49.6807 19.3066 49.959 19.2041 50.1738 19.2041C50.6035 19.2041 51.0088 19.3213 51.3896 19.5557C53.2744 20.7275 54.5537 21.7725 55.2275 22.6904C55.7158 23.3643 55.9697 24.2041 55.9893 25.21C55.9893 25.5713 55.9648 25.874 55.916 26.1182C56.4336 25.7861 56.6924 25.2588 56.6924 24.5361C56.6924 23.833 56.5947 23.291 56.3994 22.9102C56.2139 22.5293 55.9941 22.1924 55.7402 21.8994C55.4863 21.5967 55.1543 21.2695 54.7441 20.918C54.3438 20.5664 53.8457 20.1855 53.25 19.7754L51.1699 18.3545C49.4609 17.2314 48.1621 16.0449 47.2734 14.7949C46.4922 13.6914 46.1211 12.6562 46.1602 11.6895Z" fill="#313131"/>
</svg>
