<svg width="40" height="40" viewBox="0 0 40 40" fill="none" xmlns="http://www.w3.org/2000/svg">
<g clip-path="url(#clip0_29_25)">
<path d="M40.1724 19.8061C40.1724 25.1974 38.2593 29.8061 34.4332 33.6322C30.6071 37.4583 25.9695 39.3714 20.5202 39.3714C17.2738 39.3714 14.1144 38.5598 11.0419 36.9366L0.172363 40.3279L3.65062 29.8931C1.79555 26.7627 0.868015 23.4003 0.868015 19.8061C0.868015 14.4148 2.78106 9.82063 6.60715 6.02353C10.4332 2.22643 15.0709 0.327881 20.5202 0.327881C25.9695 0.327881 30.6071 2.22643 34.4332 6.02353C38.2593 9.82063 40.1724 14.4148 40.1724 19.8061ZM20.5202 3.37136C15.9405 3.37136 12.0419 4.98005 8.82454 8.19745C5.60715 11.4148 3.99845 15.2844 3.99845 19.8061C3.99845 23.4003 5.04193 26.6177 7.12889 29.4583L5.04193 35.5453L11.4767 33.5453C14.3173 35.3424 17.3318 36.2409 20.5202 36.2409C25.0999 36.2409 28.9985 34.6322 32.2158 31.4148C35.4332 28.1974 37.0419 24.3279 37.0419 19.8061C37.0419 15.2844 35.4332 11.4148 32.2158 8.19745C28.9985 4.98005 25.0999 3.37136 20.5202 3.37136ZM30.4332 24.3279C30.3753 24.2699 30.0854 24.067 29.5637 23.7192C29.3898 23.6612 28.839 23.4148 27.9115 22.9801C26.984 22.5453 26.4332 22.2989 26.2593 22.2409C25.7376 22.067 25.3608 22.125 25.1289 22.4148C25.0709 22.5888 24.9405 22.8061 24.7376 23.067C24.5347 23.3279 24.3173 23.5888 24.0854 23.8496C23.8535 24.1105 23.7086 24.2699 23.6506 24.3279C23.4187 24.6757 23.0709 24.7047 22.6071 24.4148C20.6361 23.4293 19.3318 22.6467 18.6941 22.067C18.2883 21.6612 17.897 21.2264 17.5202 20.7627C17.1434 20.2989 16.7956 19.8641 16.4767 19.4583C16.1579 19.0525 15.9985 18.8206 15.9985 18.7627C15.8245 18.3569 15.9115 18.038 16.2593 17.8061C16.4912 17.4583 16.7231 17.1685 16.955 16.9366L17.4767 16.154C17.5927 15.8641 17.5637 15.5743 17.3898 15.2844C17.1579 14.5308 16.6651 13.3424 15.9115 11.7192C15.7376 11.1974 15.3898 10.9366 14.868 10.9366H13.9115C13.3898 10.9366 12.955 11.1395 12.6071 11.5453C11.5057 12.6467 10.955 13.9511 10.955 15.4583C10.955 16.8496 11.5927 18.5018 12.868 20.4148L13.0419 20.6757C13.1579 20.8496 13.2883 21.038 13.4332 21.2409C13.5782 21.4438 13.7811 21.7047 14.0419 22.0235C14.3028 22.3424 14.5637 22.6467 14.8245 22.9366C15.0854 23.2264 15.3898 23.5598 15.7376 23.9366C16.0854 24.3134 16.4622 24.6757 16.868 25.0235C17.2738 25.3714 17.6941 25.7047 18.1289 26.0235C18.5637 26.3424 19.0419 26.6322 19.5637 26.8931C20.0854 27.154 20.6071 27.4003 21.1289 27.6322C22.0564 27.9801 22.8535 28.2699 23.5202 28.5018C24.1869 28.7337 24.7086 28.8786 25.0854 28.9366C25.4622 28.9945 25.7376 29.0235 25.9115 29.0235C26.0854 29.0235 26.2883 28.9945 26.5202 28.9366C26.7521 28.8786 26.897 28.8496 26.955 28.8496C27.4767 28.7916 28.0999 28.5308 28.8245 28.067C29.5492 27.6032 29.9985 27.1105 30.1724 26.5888C30.6361 25.3714 30.7231 24.6177 30.4332 24.3279Z" fill="#F5A661"/>
</g>
<defs>
<clipPath id="clip0_29_25">
<rect width="40" height="40" fill="white"/>
</clipPath>
</defs>
</svg>
